<svg id="Layer_1" data-name="Layer 1" xmlns="http://www.w3.org/2000/svg" viewBox="0 0 241.58 57.07"><defs><style>.cls-1{stroke:#000;stroke-miterlimit:10;stroke-width:3px;}</style></defs><path class="cls-1" d="M21.68,33.49a3.38,3.38,0,0,0-1.28-2.81,16,16,0,0,0-4.49-2.09,42.14,42.14,0,0,1-5.25-2.08Q4,23.26,4,17.55a8,8,0,0,1,1.65-5,10.72,10.72,0,0,1,4.68-3.37A18.11,18.11,0,0,1,17.16,8a16,16,0,0,1,6.59,1.31A10.46,10.46,0,0,1,28.29,13a9.74,9.74,0,0,1,1.62,5.54H21.7a4.11,4.11,0,0,0-1.27-3.23A5,5,0,0,0,17,14.18a5.6,5.6,0,0,0-3.48,1A2.86,2.86,0,0,0,13.62,20a17.63,17.63,0,0,0,4.94,2.21,29.68,29.68,0,0,1,5.82,2.45q5.52,3.18,5.53,8.79a8.35,8.35,0,0,1-3.38,7C24.28,42.18,21.2,43,17.27,43a18.24,18.24,0,0,1-7.51-1.49A11.28,11.28,0,0,1,4.7,37.46a10.62,10.62,0,0,1-1.7-6h8.25a5.2,5.2,0,0,0,1.42,4c.94.87,2.48,1.3,4.6,1.3A5.29,5.29,0,0,0,20.5,36,2.89,2.89,0,0,0,21.68,33.49Z"/><path class="cls-1" d="M56.43,42.56H48.22V8.44h8.21Z"/><path class="cls-1" d="M83.91,36.23H98.23v6.33H75.68V8.44h8.23Z"/><path class="cls-1" d="M136.73,29H123.46V42.56h-8.23V8.44h22.83v6.35h-14.6v7.85h13.27Z"/><path class="cls-1" d="M176.18,28.08H163.25v8.15h15.28v6.33H155V8.44h23.55v6.35H163.25V22h12.93Z"/><path class="cls-1" d="M223.91,42.56h-8.18L203.64,21.33V42.56h-8.23V8.44h8.23l12.07,21.23V8.44h8.2Z"/></svg>